<?xml version="1.0" standalone="no"?>
<!DOCTYPE svg PUBLIC "-//W3C//DTD SVG 20010904//EN"
 "http://www.w3.org/TR/2001/REC-SVG-20010904/DTD/svg10.dtd">
<svg version="1.0" xmlns="http://www.w3.org/2000/svg"
 width="1024.000000pt" height="1024.000000pt" viewBox="0 0 1024.000000 1024.000000"
 preserveAspectRatio="xMidYMid meet">

<g transform="translate(0.000000,1024.000000) scale(0.100000,-0.100000)"
fill="#000000" stroke="none">
<path d="M4658 8646 c-250 -32 -458 -95 -683 -206 -560 -275 -961 -770 -1139
-1405 -32 -117 -65 -297 -73 -406 -6 -85 -6 -85 26 -121 58 -67 141 -74 205
-17 39 33 39 35 61 183 71 481 282 902 604 1208 254 242 555 392 906 454 136
24 430 29 575 10 401 -53 745 -225 1054 -525 307 -300 503 -675 585 -1122 98
-532 -3 -1133 -276 -1641 -110 -207 -251 -395 -484 -648 -419 -456 -538 -617
-732 -993 -168 -324 -287 -490 -447 -621 -153 -126 -280 -188 -465 -228 -101
-21 -294 -14 -408 16 -114 29 -263 97 -351 160 -263 188 -426 505 -426 830 0
49 -5 71 -23 97 -63 94 -199 88 -249 -12 -38 -73 -15 -322 47 -507 138 -411
494 -739 920 -846 526 -133 1043 71 1394 548 93 126 134 194 246 406 210 397
356 598 719 986 363 388 532 648 678 1044 121 326 179 654 180 1005 0 215 -11
326 -53 537 -189 944 -927 1662 -1854 1804 -143 21 -407 26 -537 10z"/>
<path d="M4765 7710 c-91 -9 -147 -21 -255 -57 -324 -108 -619 -399 -759 -749
-78 -196 -107 -357 -98 -554 11 -255 80 -461 243 -731 85 -142 107 -199 102
-264 -8 -101 -47 -149 -307 -384 -190 -172 -260 -313 -249 -502 7 -120 35
-186 112 -264 71 -72 118 -99 223 -126 364 -93 864 205 1085 646 84 167 114
310 105 508 -19 447 -311 817 -875 1109 -176 91 -160 74 -150 160 29 249 129
465 298 642 174 182 348 263 592 273 236 10 401 -43 600 -192 232 -175 379
-417 449 -745 33 -152 33 -447 1 -600 -48 -226 -131 -425 -265 -636 -67 -105
-77 -127 -77 -166 0 -73 58 -128 135 -128 43 0 81 18 117 57 46 49 147 214
209 341 354 726 217 1589 -326 2051 -280 237 -582 341 -910 311z m-640 -1713
c231 -144 385 -301 478 -487 105 -211 113 -396 27 -604 -129 -308 -447 -556
-716 -556 -166 0 -235 114 -160 263 29 57 67 96 281 292 197 180 267 323 252
511 -9 99 -46 191 -139 345 -72 119 -148 273 -148 298 0 14 13 8 125 -62z"/>
</g>
</svg>
