<?xml version="1.0" standalone="no"?>
<!DOCTYPE svg PUBLIC "-//W3C//DTD SVG 20010904//EN"
 "http://www.w3.org/TR/2001/REC-SVG-20010904/DTD/svg10.dtd">
<svg version="1.0" xmlns="http://www.w3.org/2000/svg"
 width="1024.000000pt" height="1024.000000pt" viewBox="0 0 1024.000000 1024.000000"
 preserveAspectRatio="xMidYMid meet">

<g transform="translate(0.000000,1024.000000) scale(0.100000,-0.100000)"
fill="#000000" stroke="none">
<path d="M4722 7215 c-823 -94 -1491 -412 -2292 -1089 -284 -241 -763 -709
-776 -760 -10 -41 27 -87 261 -321 372 -373 673 -627 1040 -877 590 -402 1092
-604 1730 -694 150 -21 561 -30 722 -15 854 77 1580 416 2421 1129 202 171
640 604 712 703 48 67 45 76 -92 216 -750 767 -1517 1299 -2222 1539 -230 78
-443 126 -716 160 -178 22 -631 27 -788 9z m571 -326 c357 -53 666 -214 918
-475 165 -173 281 -365 354 -588 59 -181 70 -256 70 -491 0 -195 -2 -218 -29
-329 -67 -285 -188 -513 -380 -713 -223 -234 -487 -383 -812 -459 -110 -26
-134 -28 -324 -28 -173 0 -220 3 -303 22 -472 105 -848 392 -1055 808 -66 131
-107 250 -139 403 -23 111 -27 149 -27 316 0 210 16 311 75 490 183 546 663
950 1238 1040 107 16 318 19 414 4z m1064 -181 c540 -238 1246 -748 1758
-1268 l100 -101 -190 -187 c-516 -508 -1003 -868 -1492 -1104 -140 -67 -343
-151 -350 -144 -2 1 24 24 57 50 249 196 447 484 555 809 106 319 127 619 64
932 -84 418 -341 826 -666 1059 -29 21 -53 40 -53 42 0 5 80 -27 217 -88z
m-2322 74 c-6 -4 -36 -27 -67 -51 -67 -50 -224 -211 -291 -299 -161 -209 -275
-461 -333 -737 -25 -117 -28 -150 -28 -340 -1 -225 6 -282 55 -475 89 -346
287 -673 532 -877 48 -40 84 -73 80 -73 -13 0 -163 64 -286 123 -467 222
-1013 624 -1527 1125 l-165 161 150 151 c565 570 1201 1026 1745 1251 109 45
156 59 135 41z"/>
<path d="M4921 6305 c-176 -40 -275 -90 -427 -217 -143 -119 -255 -297 -306
-483 -29 -110 -32 -374 -4 -480 46 -175 124 -319 240 -442 132 -140 274 -225
456 -275 116 -31 326 -31 442 0 217 59 377 163 515 336 75 94 164 268 188 370
51 211 33 445 -49 630 -61 138 -191 296 -327 397 -76 56 -225 130 -314 154
-84 24 -329 29 -414 10z"/>
</g>
</svg>
