<?xml version="1.0" standalone="no"?>
<!DOCTYPE svg PUBLIC "-//W3C//DTD SVG 20010904//EN"
 "http://www.w3.org/TR/2001/REC-SVG-20010904/DTD/svg10.dtd">
<svg version="1.0" xmlns="http://www.w3.org/2000/svg"
 width="1024.000000pt" height="1024.000000pt" viewBox="0 0 1024.000000 1024.000000"
 preserveAspectRatio="xMidYMid meet">

<g transform="translate(0.000000,1024.000000) scale(0.100000,-0.100000)"
fill="#000000" stroke="none">
<path d="M1700 7374 c-202 -53 -359 -213 -415 -424 -23 -84 -22 -3624 0 -3719
43 -179 189 -335 374 -398 l66 -22 3381 -1 c3752 0 3416 -6 3554 66 128 67
232 186 282 324 l23 65 3 1798 c2 1981 6 1873 -60 2007 -44 90 -160 206 -254
253 -145 73 179 67 -3545 66 -2894 0 -3362 -2 -3409 -15z m6785 -359 c21 -10
56 -36 76 -57 74 -77 69 65 69 -1862 0 -1719 -1 -1731 -21 -1776 -25 -55 -71
-105 -124 -133 l-40 -22 -3300 -3 c-2386 -2 -3314 0 -3352 8 -64 14 -131 69
-164 137 l-24 48 0 1745 c0 1589 1 1748 16 1781 26 56 79 110 134 136 l50 23
3320 -3 c3276 -2 3321 -2 3360 -22z"/>
<path d="M2060 6607 c-64 -42 -75 -74 -78 -239 -4 -170 8 -214 74 -264 l37
-29 261 -3 c258 -3 262 -3 306 21 28 15 53 38 67 63 21 36 23 52 23 200 0 151
-1 163 -23 195 -12 18 -38 44 -56 56 -33 23 -40 23 -306 23 -266 0 -273 -1
-305 -23z"/>
<path d="M3129 6607 c-19 -12 -44 -42 -56 -67 -20 -39 -23 -59 -23 -175 0
-150 9 -192 51 -240 46 -52 78 -57 362 -53 279 3 293 6 339 70 22 31 23 44 26
201 3 164 3 169 -22 211 -43 74 -55 76 -369 76 -268 0 -275 -1 -308 -23z"/>
<path d="M4242 6613 c-73 -36 -97 -115 -90 -293 6 -136 22 -179 81 -218 l41
-27 276 0 276 0 42 27 c66 44 73 66 74 246 1 164 -2 182 -46 230 -45 50 -56
52 -348 52 -231 0 -278 -3 -306 -17z"/>
<path d="M5350 6607 c-63 -42 -75 -76 -78 -228 -4 -150 5 -202 44 -248 48 -57
82 -63 365 -59 284 3 293 5 346 75 28 36 28 39 31 192 3 146 2 159 -20 201
-13 25 -38 55 -57 67 -33 23 -40 23 -316 23 -276 0 -283 0 -315 -23z"/>
<path d="M6448 6612 c-71 -47 -87 -106 -83 -305 3 -107 5 -122 28 -156 15 -23
44 -47 69 -60 41 -20 60 -21 289 -21 134 0 260 4 278 10 39 11 86 51 107 92
10 20 14 68 14 183 0 177 -11 216 -73 254 -33 20 -47 21 -318 21 -255 0 -287
-2 -311 -18z"/>
<path d="M7541 6613 c-18 -9 -45 -34 -60 -56 -24 -38 -26 -49 -29 -177 -3 -84
1 -153 8 -180 15 -54 63 -104 115 -119 24 -6 137 -11 280 -11 230 0 243 1 285
23 69 35 84 63 90 170 3 51 3 131 0 179 -6 96 -19 124 -80 166 -32 21 -39 22
-304 22 -231 0 -276 -3 -305 -17z"/>
<path d="M2059 5767 c-19 -12 -44 -42 -56 -67 -21 -40 -23 -59 -23 -185 0
-126 2 -145 23 -185 14 -30 36 -53 62 -67 39 -22 49 -23 306 -23 260 0 267 0
300 23 18 12 44 38 56 56 22 32 23 44 23 196 0 152 -1 164 -23 196 -12 18 -38
44 -56 56 -33 23 -40 23 -306 23 -266 0 -273 -1 -306 -23z"/>
<path d="M3130 5767 c-65 -43 -75 -74 -78 -243 -3 -137 -2 -155 17 -192 11
-22 35 -51 53 -64 33 -23 35 -23 320 -23 275 0 288 1 315 21 15 11 38 36 51
55 22 33 23 40 20 204 -3 157 -5 172 -25 201 -44 61 -62 64 -366 64 -268 0
-275 -1 -307 -23z"/>
<path d="M4240 5772 c-76 -41 -97 -118 -88 -312 6 -117 26 -164 84 -197 38
-22 48 -23 314 -23 261 0 277 1 309 21 76 46 89 89 85 286 -3 147 -12 176 -66
215 -32 23 -38 23 -318 26 -263 2 -288 1 -320 -16z"/>
<path d="M5364 5776 c-17 -8 -44 -31 -60 -52 -29 -37 -29 -40 -32 -187 -4
-174 7 -220 66 -265 l35 -27 281 -3 c276 -2 282 -2 321 20 26 15 48 39 63 68
21 42 23 55 20 202 -3 173 -8 188 -78 236 -32 22 -39 22 -309 22 -210 -1 -283
-4 -307 -14z"/>
<path d="M6455 5774 c-76 -39 -100 -116 -93 -294 5 -121 16 -156 60 -197 42
-39 70 -43 338 -43 268 0 296 4 338 43 49 45 54 69 53 235 -1 140 -4 159 -23
194 -43 77 -49 78 -364 78 -233 0 -284 -3 -309 -16z"/>
<path d="M7530 5767 c-65 -43 -75 -74 -78 -242 -3 -140 -2 -153 20 -195 15
-29 37 -53 63 -67 39 -22 49 -23 302 -23 271 0 299 3 341 43 51 47 56 71 55
235 -2 173 -13 209 -73 250 -32 22 -39 22 -315 22 -276 0 -283 0 -315 -23z"/>
<path d="M2082 4905 c-42 -18 -79 -61 -92 -105 -5 -19 -10 -96 -10 -171 0
-123 2 -140 23 -180 15 -27 38 -53 63 -67 38 -22 45 -22 311 -20 258 3 273 4
300 24 15 11 38 36 51 54 21 31 22 43 22 194 0 148 -2 164 -23 201 -14 26 -37
48 -67 63 -42 21 -54 22 -295 22 -193 -1 -257 -4 -283 -15z"/>
<path d="M3174 4913 c-37 -7 -103 -71 -114 -111 -5 -20 -10 -97 -10 -171 0
-163 15 -205 85 -247 l43 -25 275 3 c307 3 303 2 355 79 22 33 23 40 20 204
-3 161 -4 172 -27 204 -47 65 -75 71 -356 69 -137 0 -260 -3 -271 -5z"/>
<path d="M4254 4901 c-83 -38 -109 -115 -102 -300 5 -122 15 -156 60 -198 42
-40 70 -43 340 -43 241 0 265 2 303 20 83 40 100 109 86 340 -7 112 -28 150
-95 181 -37 17 -69 19 -296 19 -227 0 -259 -2 -296 -19z"/>
<path d="M5375 4906 c-48 -21 -93 -79 -100 -130 -4 -24 -5 -103 -4 -174 4
-120 6 -131 31 -169 46 -70 70 -74 385 -71 308 3 307 3 351 88 20 39 22 59 22
180 0 74 -5 151 -10 170 -11 41 -61 94 -103 109 -43 17 -534 14 -572 -3z"/>
<path d="M6465 4906 c-37 -16 -82 -67 -93 -104 -4 -15 -7 -92 -7 -172 0 -135
2 -148 24 -187 16 -29 39 -50 66 -63 38 -18 62 -20 312 -20 264 0 271 0 304
23 18 12 44 38 57 57 22 34 23 41 20 205 -3 161 -4 172 -27 204 -47 65 -74 71
-366 70 -194 0 -268 -3 -290 -13z"/>
<path d="M7564 4909 c-42 -12 -90 -68 -104 -121 -7 -25 -10 -97 -8 -177 4
-156 16 -189 86 -229 38 -21 50 -22 300 -22 270 0 298 4 340 43 51 47 57 71
56 232 -1 170 -11 206 -72 253 l-35 27 -266 2 c-146 1 -280 -3 -297 -8z"/>
<path d="M2073 4074 c-76 -38 -92 -85 -92 -274 -1 -120 3 -152 18 -185 43 -94
78 -104 361 -105 241 0 282 6 331 47 52 44 59 75 59 248 0 178 -8 207 -66 251
l-37 29 -271 3 c-231 2 -276 0 -303 -14z"/>
<path d="M3138 4070 c-20 -11 -47 -36 -60 -57 -21 -35 -23 -51 -26 -184 -2
-91 1 -162 8 -189 15 -54 63 -104 115 -119 54 -15 3793 -15 3847 -1 48 14 97
55 114 97 10 23 14 80 14 196 0 154 -1 166 -22 197 -13 18 -36 43 -51 54 l-28
21 -1937 2 c-1898 2 -1938 2 -1974 -17z"/>
<path d="M7538 4070 c-20 -11 -47 -36 -60 -57 -21 -35 -23 -51 -26 -184 -4
-169 6 -219 52 -265 50 -50 89 -56 366 -52 l247 3 40 27 c56 37 73 79 78 196
6 152 -7 244 -40 288 -47 61 -63 64 -357 64 -240 -1 -266 -3 -300 -20z"/>
</g>
</svg>
