<?xml version="1.0" standalone="no"?>
<!DOCTYPE svg PUBLIC "-//W3C//DTD SVG 20010904//EN"
 "http://www.w3.org/TR/2001/REC-SVG-20010904/DTD/svg10.dtd">
<svg version="1.0" xmlns="http://www.w3.org/2000/svg"
 width="1024.000000pt" height="1024.000000pt" viewBox="0 0 1024.000000 1024.000000"
 preserveAspectRatio="xMidYMid meet">

<g transform="translate(0.000000,1024.000000) scale(0.100000,-0.100000)"
fill="#000000" stroke="none">
<path d="M6785 7044 c-67 -35 -95 -79 -95 -150 0 -56 25 -100 78 -140 202
-150 413 -412 538 -669 267 -548 259 -1217 -22 -1778 -119 -238 -226 -381
-440 -593 -94 -93 -155 -161 -160 -178 -23 -91 48 -186 151 -202 67 -10 121
22 252 149 215 209 378 429 501 678 118 240 188 459 228 719 28 179 26 542 -5
715 -98 559 -345 1014 -728 1346 -52 45 -110 90 -131 100 -45 23 -126 25 -167
3z"/>
<path d="M3457 6854 c-174 -38 -355 -130 -542 -278 -55 -43 -305 -282 -555
-530 -250 -248 -520 -514 -598 -591 -79 -77 -153 -158 -165 -180 -14 -27 -20
-59 -21 -100 0 -90 30 -141 139 -235 91 -79 168 -161 350 -369 445 -509 565
-631 769 -780 281 -206 647 -328 1090 -363 319 -25 678 39 942 167 134 65 246
147 338 246 109 118 181 250 206 377 19 97 8 281 -22 367 -62 175 -181 343
-325 458 -35 28 -63 53 -63 57 0 4 34 28 77 55 301 191 513 455 554 690 34
198 -69 463 -266 684 -206 230 -427 341 -683 341 -160 0 -278 -37 -428 -135
l-84 -55 -73 50 c-91 62 -198 107 -294 126 -94 18 -257 17 -346 -2z m283 -335
c66 -15 155 -61 249 -129 138 -99 185 -101 314 -13 211 144 361 182 518 133
121 -37 218 -112 332 -254 107 -134 151 -227 151 -317 0 -57 -5 -78 -36 -140
-21 -41 -64 -103 -96 -139 l-59 -65 -73 68 c-180 166 -410 219 -673 154 -140
-35 -236 -35 -399 -2 -288 60 -422 32 -1003 -207 -298 -123 -496 -190 -672
-226 -79 -16 -143 -29 -143 -28 0 10 778 780 856 847 198 172 321 253 457 300
89 31 191 38 277 18z m1005 -1048 c67 -33 104 -74 89 -98 -5 -8 -40 -28 -79
-44 -38 -17 -92 -40 -119 -52 -127 -57 -140 -222 -24 -307 23 -18 67 -44 96
-58 29 -15 51 -31 49 -37 -5 -16 -130 -53 -257 -77 -96 -18 -153 -22 -340 -22
-389 -1 -535 30 -1140 249 -157 56 -292 105 -300 108 -19 6 47 37 390 180 151
63 322 130 380 148 95 31 117 34 225 34 77 0 156 -7 220 -19 143 -28 352 -27
460 2 109 28 129 31 214 27 58 -3 88 -10 136 -34z m-2477 -510 c445 -192 937
-372 1206 -441 526 -135 1090 -112 1461 59 l86 40 19 -45 c85 -197 61 -355
-75 -503 -159 -171 -387 -262 -755 -302 -294 -31 -742 51 -1005 184 -226 113
-363 242 -845 791 -240 273 -242 276 -235 276 3 0 68 -27 143 -59z"/>
<path d="M6229 6407 c-72 -38 -108 -127 -80 -200 5 -14 40 -58 77 -98 156
-172 277 -379 329 -563 84 -296 41 -638 -117 -936 -67 -126 -139 -237 -210
-324 -71 -86 -86 -129 -69 -188 25 -83 101 -134 184 -124 65 7 85 22 159 114
318 398 469 873 417 1307 -35 289 -143 553 -326 800 -164 221 -251 271 -364
212z"/>
</g>
</svg>
