<?xml version="1.0" standalone="no"?>
<!DOCTYPE svg PUBLIC "-//W3C//DTD SVG 20010904//EN"
 "http://www.w3.org/TR/2001/REC-SVG-20010904/DTD/svg10.dtd">
<svg version="1.0" xmlns="http://www.w3.org/2000/svg"
 width="1024.000000pt" height="1024.000000pt" viewBox="0 0 1024.000000 1024.000000"
 preserveAspectRatio="xMidYMid meet">

<g transform="translate(0.000000,1024.000000) scale(0.100000,-0.100000)"
fill="#000000" stroke="none">
<path d="M3365 8355 c-22 -8 -41 -15 -42 -15 -1 0 -14 -17 -28 -37 -19 -28
-25 -50 -25 -89 0 -55 -1 -52 153 -344 77 -145 148 -324 184 -460 23 -85 26
-123 33 -355 6 -231 9 -268 30 -330 64 -199 188 -361 550 -720 267 -265 283
-290 240 -375 -34 -66 -90 -100 -268 -161 -227 -78 -317 -160 -329 -299 -9
-100 52 -249 144 -351 32 -35 33 -39 17 -45 -11 -4 -109 -51 -219 -104 -337
-164 -459 -280 -459 -440 0 -85 27 -144 98 -216 72 -71 168 -117 316 -149 158
-35 200 -46 200 -55 0 -5 -18 -22 -39 -40 -55 -43 -108 -118 -132 -187 -23
-66 -28 -231 -9 -338 19 -112 13 -167 -23 -236 -78 -151 -246 -207 -546 -181
-176 15 -251 29 -631 114 -188 42 -349 72 -401 75 -85 6 -85 5 -122 -27 -71
-62 -70 -157 1 -222 46 -41 83 -52 482 -143 419 -95 524 -110 775 -110 227 0
299 12 429 69 168 74 305 236 351 416 17 66 17 107 -1 321 -10 115 -2 139 72
222 35 39 79 101 97 137 29 59 32 73 32 160 0 85 -3 100 -27 141 -34 57 -87
105 -146 130 -25 11 -111 33 -191 49 -80 15 -155 32 -166 35 -57 19 -74 28
-69 36 16 26 178 122 324 191 220 105 266 129 295 156 53 49 71 114 55 202
-15 84 -49 151 -120 240 l-60 75 24 21 c14 12 55 32 93 44 161 53 269 115 363
210 172 173 177 403 15 605 -26 33 -152 164 -280 290 -259 256 -345 359 -407
485 l-43 85 -1 250 c0 248 0 251 -32 370 -64 242 -174 503 -307 732 -69 118
-88 140 -140 164 -48 22 -58 22 -110 4z"/>
<path d="M6643 6740 c-62 -37 -84 -100 -63 -176 10 -34 33 -67 90 -129 309
-334 486 -666 595 -1116 40 -168 55 -298 55 -499 0 -265 -25 -456 -90 -681
-106 -370 -326 -746 -596 -1017 -88 -88 -110 -130 -101 -189 13 -78 104 -143
181 -129 92 17 303 236 473 491 279 418 437 903 459 1410 21 484 -123 1042
-384 1483 -129 218 -336 473 -438 541 -58 38 -130 43 -181 11z"/>
<path d="M5836 6110 c-57 -18 -106 -85 -106 -147 1 -53 38 -108 146 -218 120
-121 184 -210 255 -355 161 -329 183 -733 58 -1087 -39 -111 -106 -245 -174
-348 -62 -93 -179 -230 -231 -270 -117 -89 -87 -270 48 -296 82 -15 112 1 238
129 373 380 567 932 510 1447 -44 394 -200 733 -455 991 -143 146 -205 179
-289 154z"/>
<path d="M5264 5421 c-48 -29 -64 -59 -64 -118 0 -65 12 -97 58 -153 54 -64
66 -87 95 -165 84 -234 50 -466 -92 -628 -79 -90 -91 -170 -34 -237 82 -98
194 -74 305 64 169 211 226 535 147 844 -41 162 -158 346 -250 392 -50 26
-124 26 -165 1z"/>
</g>
</svg>
